<svg xmlns="http://www.w3.org/2000/svg" fill="white" height="512" viewBox="0 0 512 512" width="512"><g id="Out_line" data-name="Out line"><path d="m464 16h-336a32 32 0 0 0 -32 32v128h16v-128a16 16 0 0 1 16-16h336a16 16 0 0 1 16 16v360a16 16 0 0 1 -16 16h-192v16h192a32 32 0 0 0 32-32v-360a32 32 0 0 0 -32-32z"/><path d="m456 48a8.00008 8.00008 0 0 0 -8-8h-304a8.00008 8.00008 0 0 0 -8 8v48a8.00008 8.00008 0 0 0 8 8h304a8.00008 8.00008 0 0 0 8-8zm-16 40h-288v-32h288z"/><path d="m448 408a8.00008 8.00008 0 0 0 8-8v-128a8.00008 8.00008 0 0 0 -8-8h-40a8.00008 8.00008 0 0 0 -8 8v32h-24v-16a8.00008 8.00008 0 0 0 -8-8h-40a8.00008 8.00008 0 0 0 -8 8v56h-32a8.00008 8.00008 0 0 0 -8 8v48a8 8 0 0 0 16 0v-40h24v40a8 8 0 0 0 16 0v-104h24v104a8 8 0 0 0 16 0v-80h24v80a8 8 0 0 0 16 0v-120h24v120a8.00008 8.00008 0 0 0 8 8z"/><path d="m248 216h80v16h-80z"/><path d="m168 120h32v16h-32z"/><path d="m216 120h64v16h-64z"/><path d="m296 120h96v16h-96z"/><path d="m408 120h40v16h-40z"/><path d="m136 152h32v16h-32z"/><path d="m184 152h64v16h-64z"/><path d="m264 152h96v16h-96z"/><path d="m376 152h72v16h-72z"/><path d="m216 184h80v16h-80z"/><path d="m312 184h96v16h-96z"/><path d="m424 184h24v16h-24z"/><path d="m344 216h48v16h-48z"/><path d="m64 480h16v16h-16z"/><path d="m208 480h16v16h-16z"/><path d="m205.2666 402.32715-17.66308-5.04639a16.06916 16.06916 0 0 1 -11.4502-13.28076h39.84668a39.99115 39.99115 0 0 0 40-40 8.00121 8.00121 0 0 0 -2.34277-5.65674 74.24077 74.24077 0 0 1 -16.219-24.4602 28.01364 28.01364 0 0 0 -5.61889-47.27661 87.98939 87.98939 0 0 0 -175.65064.02429 27.98762 27.98762 0 0 0 -7.9646 45.16662 28.45934 28.45934 0 0 0 2.34522 2.09186 73.619 73.619 0 0 1 -5.18116 10.36078 73.87821 73.87821 0 0 1 -11.02441 14.09277 7.99832 7.99832 0 0 0 -2.34375 5.65723 40.04552 40.04552 0 0 0 40 40h39.84668a16.06916 16.06916 0 0 1 -11.45117 13.28076l-17.66211 5.04639a92.01212 92.01212 0 0 0 -66.7334 88.47168v5.20117h16v-5.20117a76.0117 76.0117 0 0 1 55.12988-73.08692l8.679-2.47985 17.33081 28.88415a8.0009 8.0009 0 0 0 13.26074.68359l9.59957-12.79956v63.99976h16v-63.99976l9.59961 12.79956a8.00042 8.00042 0 0 0 6.39939 3.2002q.20655 0 .41309-.01074a8.002 8.002 0 0 0 6.44824-3.873l17.33057-28.88409 8.6792 2.47979a76.0117 76.0117 0 0 1 55.1299 73.08687v5.20117h16v-5.20117a92.01212 92.01212 0 0 0 -66.7334-88.47168zm-61.2666-5.64063-16-16.00042v-17.33844a8.00038 8.00038 0 0 0 -4.99805-7.41553 55.79115 55.79115 0 0 1 -35.00195-51.93213v-24h16a8 8 0 0 0 0 16h16a8 8 0 0 0 0-16h16a39.96382 39.96382 0 0 0 32-16.0249 39.96382 39.96382 0 0 0 32 16.0249v24a55.79115 55.79115 0 0 1 -35.00195 51.93213 8.00038 8.00038 0 0 0 -4.99805 7.41553v17.33844zm72-116.68652h4a12 12 0 0 1 0 24h-4zm23.81348 67.02051a23.99922 23.99922 0 0 1 -23.81348 20.97949h-38.99316a71.5963 71.5963 0 0 0 37.21-48h5.78316c.87939 0 1.74829-.046 2.60742-.12567a90.392 90.392 0 0 0 17.20606 27.14618zm-95.81348-147.02051a71.9795 71.9795 0 0 1 71.54712 64h-15.54712a24.02718 24.02718 0 0 1 -24-24 8 8 0 0 0 -16 0 24.02718 24.02718 0 0 1 -24 24h-63.54492a72.095 72.095 0 0 1 71.54492-64zm-76 80h4v24h-4a12 12 0 0 1 0-24zm-19.81055 67.01953a89.93658 89.93658 0 0 0 10.87793-14.50342 89.63008 89.63008 0 0 0 6.31762-12.63952c.86427.07965 1.73634.12341 2.615.12341h5.7832a71.5963 71.5963 0 0 0 37.21 48h-38.9932a24.03567 24.03567 0 0 1 -23.81055-20.98047zm72.54883 78.6626-9.43066-15.71869a32.19311 32.19311 0 0 0 11.948-11.3938l10.18115 10.18109zm46.52344 0-12.69849-16.9314 10.18115-10.18109a32.19319 32.19319 0 0 0 11.948 11.394z"/><circle cx="112" cy="304" r="8"/><circle cx="176" cy="304" r="8"/><path d="m165.65625 341.65723a7.99984 7.99984 0 1 0 -11.3125-11.31446 14.64563 14.64563 0 0 1 -20.6875 0 7.99984 7.99984 0 1 0 -11.3125 11.31446 30.66225 30.66225 0 0 0 43.3125 0z"/><path d="m168 296h16a8 8 0 0 0 0-16h-16a8 8 0 0 0 0 16z"/></g></svg>